<svg width="363" height="150" viewBox="0 0 363 150" fill="none" xmlns="http://www.w3.org/2000/svg">
<path fill-rule="evenodd" clip-rule="evenodd" d="M84 80.4286H78.3333V69.5714H84V80.4286ZM72.6667 85.8571H67V64.1429H72.6667V85.8571ZM61.3333 94H55.6667V56H61.3333V94ZM50 85.8571H44.3333V64.1429H50V85.8571ZM38.6667 80.4286H33V69.5714H38.6667V80.4286Z" fill="#0082FB"/>
<path fill-rule="evenodd" clip-rule="evenodd" d="M84 80.4286H78.3333V69.5714H84V80.4286ZM72.6667 85.8571H67V64.1429H72.6667V85.8571ZM61.3333 94H55.6667V56H61.3333V94ZM50 85.8571H44.3333V64.1429H50V85.8571ZM38.6667 80.4286H33V69.5714H38.6667V80.4286Z" fill="url(#paint0_linear_189_10)" fill-opacity="0.2"/>
<path d="M110.927 67V41.5389H117.081V51.7582H127.114V41.5389H133.255V67H127.114V56.7683H117.081V67H110.927ZM146.029 67.3605C144.023 67.3605 142.3 66.9503 140.857 66.1297C139.424 65.3009 138.317 64.1489 137.538 62.6736C136.767 61.19 136.382 59.4702 136.382 57.5143C136.382 55.55 136.767 53.8302 137.538 52.3549C138.317 50.8713 139.424 49.7193 140.857 48.8988C142.3 48.0699 144.023 47.6555 146.029 47.6555C148.035 47.6555 149.755 48.0699 151.189 48.8988C152.631 49.7193 153.737 50.8713 154.508 52.3549C155.287 53.8302 155.677 55.55 155.677 57.5143C155.677 59.4702 155.287 61.19 154.508 62.6736C153.737 64.1489 152.631 65.3009 151.189 66.1297C149.755 66.9503 148.035 67.3605 146.029 67.3605ZM146.067 62.7731C146.796 62.7731 147.413 62.5493 147.919 62.1017C148.424 61.6542 148.81 61.0326 149.075 60.2369C149.349 59.4412 149.485 58.5213 149.485 57.477C149.485 56.4161 149.349 55.4878 149.075 54.6922C148.81 53.8965 148.424 53.2749 147.919 52.8273C147.413 52.3798 146.796 52.156 146.067 52.156C145.312 52.156 144.674 52.3798 144.152 52.8273C143.638 53.2749 143.244 53.8965 142.971 54.6922C142.706 55.4878 142.573 56.4161 142.573 57.477C142.573 58.5213 142.706 59.4412 142.971 60.2369C143.244 61.0326 143.638 61.6542 144.152 62.1017C144.674 62.5493 145.312 62.7731 146.067 62.7731ZM158.791 67V47.9042H164.572V51.4101H164.783C165.181 50.2497 165.852 49.3339 166.797 48.6625C167.742 47.9912 168.869 47.6555 170.179 47.6555C171.505 47.6555 172.64 47.9954 173.585 48.675C174.53 49.3546 175.131 50.2663 175.388 51.4101H175.587C175.943 50.2746 176.639 49.367 177.675 48.6874C178.711 47.9995 179.934 47.6555 181.343 47.6555C183.15 47.6555 184.617 48.2357 185.744 49.396C186.871 50.5481 187.435 52.1311 187.435 54.1451V67H181.355V55.5375C181.355 54.5844 181.111 53.8592 180.622 53.3619C180.133 52.8563 179.499 52.6035 178.72 52.6035C177.883 52.6035 177.224 52.8771 176.743 53.4241C176.27 53.9628 176.034 54.688 176.034 55.5997V67H170.191V55.4754C170.191 54.5885 169.951 53.8882 169.47 53.3743C168.989 52.8605 168.355 52.6035 167.568 52.6035C167.038 52.6035 166.569 52.732 166.163 52.9889C165.757 53.2376 165.438 53.594 165.206 54.0581C164.982 54.5222 164.87 55.0693 164.87 55.6992V67H158.791ZM200.128 67.3605C198.13 67.3605 196.406 66.9668 194.956 66.1795C193.514 65.3838 192.403 64.2525 191.624 62.7855C190.853 61.3102 190.468 59.5573 190.468 57.5267C190.468 55.5541 190.858 53.8302 191.637 52.3549C192.416 50.8713 193.514 49.7193 194.931 48.8988C196.348 48.0699 198.018 47.6555 199.941 47.6555C201.301 47.6555 202.544 47.8669 203.671 48.2896C204.798 48.7123 205.772 49.338 206.593 50.1668C207.413 50.9957 208.051 52.0192 208.507 53.2376C208.963 54.4477 209.191 55.8359 209.191 57.4024V58.9191H192.594V55.3884H203.534C203.526 54.7419 203.373 54.1659 203.074 53.6603C202.776 53.1547 202.366 52.761 201.843 52.4792C201.33 52.1891 200.737 52.0441 200.066 52.0441C199.386 52.0441 198.777 52.1974 198.238 52.5041C197.699 52.8025 197.273 53.2127 196.958 53.7349C196.643 54.2487 196.477 54.833 196.46 55.4878V59.0807C196.46 59.8598 196.614 60.5436 196.92 61.132C197.227 61.7122 197.662 62.1639 198.226 62.4871C198.789 62.8104 199.461 62.972 200.24 62.972C200.778 62.972 201.267 62.8974 201.707 62.7482C202.146 62.599 202.523 62.3794 202.838 62.0893C203.153 61.7992 203.389 61.4428 203.547 61.0201L209.129 61.1817C208.897 62.4332 208.387 63.5231 207.6 64.4514C206.82 65.3714 205.797 66.0883 204.529 66.6022C203.261 67.1077 201.794 67.3605 200.128 67.3605ZM218.984 46.5366V41.5389H240.504V46.5366H232.784V67H226.717V46.5366H218.984ZM249.654 67.3605C247.649 67.3605 245.925 66.9503 244.483 66.1297C243.049 65.3009 241.942 64.1489 241.163 62.6736C240.393 61.19 240.007 59.4702 240.007 57.5143C240.007 55.55 240.393 53.8302 241.163 52.3549C241.942 50.8713 243.049 49.7193 244.483 48.8988C245.925 48.0699 247.649 47.6555 249.654 47.6555C251.66 47.6555 253.38 48.0699 254.814 48.8988C256.256 49.7193 257.362 50.8713 258.133 52.3549C258.912 53.8302 259.302 55.55 259.302 57.5143C259.302 59.4702 258.912 61.19 258.133 62.6736C257.362 64.1489 256.256 65.3009 254.814 66.1297C253.38 66.9503 251.66 67.3605 249.654 67.3605ZM249.692 62.7731C250.421 62.7731 251.039 62.5493 251.544 62.1017C252.05 61.6542 252.435 61.0326 252.7 60.2369C252.974 59.4412 253.111 58.5213 253.111 57.477C253.111 56.4161 252.974 55.4878 252.7 54.6922C252.435 53.8965 252.05 53.2749 251.544 52.8273C251.039 52.3798 250.421 52.156 249.692 52.156C248.938 52.156 248.299 52.3798 247.777 52.8273C247.263 53.2749 246.87 53.8965 246.596 54.6922C246.331 55.4878 246.198 56.4161 246.198 57.477C246.198 58.5213 246.331 59.4412 246.596 60.2369C246.87 61.0326 247.263 61.6542 247.777 62.1017C248.299 62.5493 248.938 62.7731 249.692 62.7731ZM265.574 67L260.601 47.9042H266.705L269.279 60.1374H269.44L272.2 47.9042H278.155L280.99 60.0504H281.151L283.65 47.9042H289.754L284.769 67H278.267L275.283 55.8732H275.072L272.088 67H265.574ZM298.274 56.1094V67H292.194V47.9042H297.975V51.4101H298.187C298.609 50.2414 299.33 49.3256 300.35 48.6625C301.369 47.9912 302.583 47.6555 303.992 47.6555C305.335 47.6555 306.5 47.9581 307.486 48.5631C308.48 49.1598 309.251 49.9969 309.798 51.0744C310.354 52.1436 310.627 53.3951 310.619 54.8289V67H304.539V56.0224C304.548 54.9615 304.278 54.1327 303.731 53.536C303.193 52.9392 302.443 52.6408 301.481 52.6408C300.843 52.6408 300.279 52.7817 299.79 53.0635C299.31 53.337 298.937 53.7307 298.671 54.2446C298.415 54.7585 298.282 55.3801 298.274 56.1094ZM110.927 83.5389H118.548L125.013 99.3029H125.311L131.776 83.5389H139.397V109H133.404V93.3603H133.193L127.076 108.838H123.247L117.131 93.2733H116.919V109H110.927V83.5389ZM152.161 109.361C150.164 109.361 148.44 108.967 146.99 108.179C145.547 107.384 144.437 106.252 143.658 104.785C142.887 103.31 142.502 101.557 142.502 99.5267C142.502 97.5541 142.891 95.8302 143.67 94.3549C144.449 92.8713 145.547 91.7193 146.965 90.8988C148.382 90.0699 150.052 89.6555 151.975 89.6555C153.334 89.6555 154.577 89.8669 155.705 90.2896C156.832 90.7123 157.806 91.338 158.626 92.1668C159.447 92.9957 160.085 94.0192 160.541 95.2376C160.997 96.4477 161.224 97.8359 161.224 99.4024V100.919H144.627V97.3884H155.568C155.56 96.7419 155.406 96.1659 155.108 95.6603C154.809 95.1547 154.399 94.761 153.877 94.4792C153.363 94.1891 152.771 94.0441 152.099 94.0441C151.42 94.0441 150.81 94.1974 150.272 94.5041C149.733 94.8025 149.306 95.2127 148.991 95.7349C148.676 96.2487 148.51 96.833 148.494 97.4878V101.081C148.494 101.86 148.647 102.544 148.954 103.132C149.261 103.712 149.696 104.164 150.259 104.487C150.823 104.81 151.494 104.972 152.273 104.972C152.812 104.972 153.301 104.897 153.74 104.748C154.18 104.599 154.557 104.379 154.872 104.089C155.187 103.799 155.423 103.443 155.58 103.02L161.162 103.182C160.93 104.433 160.42 105.523 159.633 106.451C158.854 107.371 157.83 108.088 156.562 108.602C155.294 109.108 153.827 109.361 152.161 109.361ZM171.304 109.274C169.895 109.274 168.614 108.909 167.462 108.179C166.31 107.45 165.39 106.356 164.702 104.897C164.014 103.439 163.67 101.628 163.67 99.4645C163.67 97.2184 164.027 95.3702 164.74 93.9198C165.452 92.4694 166.385 91.396 167.537 90.6998C168.697 90.0036 169.945 89.6555 171.279 89.6555C172.282 89.6555 173.14 89.8296 173.852 90.1777C174.565 90.5175 175.154 90.9568 175.618 91.4955C176.082 92.0342 176.434 92.5937 176.675 93.1738H176.799V83.5389H182.878V109H176.861V105.904H176.675C176.418 106.493 176.053 107.044 175.58 107.558C175.108 108.072 174.515 108.486 173.803 108.801C173.098 109.116 172.265 109.274 171.304 109.274ZM173.417 104.537C174.155 104.537 174.785 104.33 175.307 103.915C175.829 103.493 176.231 102.9 176.513 102.137C176.795 101.375 176.936 100.48 176.936 99.4521C176.936 98.4078 176.795 97.5085 176.513 96.7543C176.239 96.0001 175.837 95.4199 175.307 95.0138C174.785 94.6077 174.155 94.4046 173.417 94.4046C172.663 94.4046 172.025 94.6118 171.503 95.0262C170.981 95.4406 170.583 96.025 170.309 96.7792C170.044 97.5334 169.911 98.4244 169.911 99.4521C169.911 100.48 170.048 101.375 170.322 102.137C170.595 102.9 170.989 103.493 171.503 103.915C172.025 104.33 172.663 104.537 173.417 104.537ZM186.723 109V89.9042H192.802V109H186.723ZM189.769 87.6788C188.915 87.6788 188.182 87.397 187.568 86.8334C186.955 86.2616 186.648 85.5736 186.648 84.7697C186.648 83.974 186.955 83.2944 187.568 82.7308C188.182 82.1589 188.915 81.873 189.769 81.873C190.631 81.873 191.364 82.1589 191.969 82.7308C192.583 83.2944 192.889 83.974 192.889 84.7697C192.889 85.5736 192.583 86.2616 191.969 86.8334C191.364 87.397 190.631 87.6788 189.769 87.6788ZM202.055 109.323C200.836 109.323 199.755 109.12 198.81 108.714C197.873 108.3 197.132 107.678 196.585 106.849C196.046 106.012 195.777 104.964 195.777 103.704C195.777 102.643 195.963 101.748 196.336 101.019C196.709 100.289 197.223 99.6966 197.878 99.2407C198.532 98.7849 199.287 98.4409 200.14 98.2089C200.994 97.9685 201.906 97.8069 202.875 97.724C203.961 97.6246 204.835 97.521 205.499 97.4132C206.162 97.2972 206.642 97.1356 206.941 96.9284C207.247 96.7129 207.401 96.4104 207.401 96.0208V95.9587C207.401 95.3205 207.181 94.8273 206.742 94.4792C206.302 94.1311 205.71 93.9571 204.964 93.9571C204.16 93.9571 203.514 94.1311 203.025 94.4792C202.536 94.8273 202.225 95.308 202.092 95.9214L196.485 95.7224C196.651 94.5621 197.078 93.5261 197.766 92.6144C198.462 91.6944 199.415 90.9734 200.625 90.4512C201.843 89.9208 203.306 89.6555 205.014 89.6555C206.232 89.6555 207.355 89.8006 208.383 90.0907C209.411 90.3725 210.306 90.7869 211.068 91.3339C211.831 91.8726 212.419 92.5357 212.834 93.323C213.256 94.1104 213.468 95.0097 213.468 96.0208V109H207.749V106.34H207.6C207.26 106.986 206.825 107.533 206.294 107.981C205.772 108.428 205.155 108.764 204.442 108.988C203.737 109.211 202.942 109.323 202.055 109.323ZM203.932 105.345C204.587 105.345 205.175 105.212 205.697 104.947C206.228 104.682 206.651 104.317 206.966 103.853C207.28 103.381 207.438 102.834 207.438 102.212V100.397C207.264 100.488 207.053 100.571 206.804 100.646C206.564 100.72 206.298 100.791 206.008 100.857C205.718 100.923 205.42 100.981 205.113 101.031C204.806 101.081 204.512 101.126 204.23 101.168C203.659 101.259 203.17 101.4 202.763 101.59C202.366 101.781 202.059 102.03 201.843 102.336C201.636 102.635 201.533 102.991 201.533 103.406C201.533 104.035 201.756 104.516 202.204 104.848C202.66 105.179 203.236 105.345 203.932 105.345ZM241.415 91.856C241.274 91.3339 241.067 90.8739 240.793 90.4761C240.52 90.0699 240.184 89.726 239.786 89.4442C239.389 89.1624 238.933 88.9511 238.419 88.8102C237.905 88.661 237.341 88.5864 236.728 88.5864C235.493 88.5864 234.424 88.8847 233.521 89.4815C232.626 90.0782 231.933 90.9485 231.444 92.0922C230.955 93.2277 230.711 94.6077 230.711 96.2322C230.711 97.8649 230.947 99.2573 231.42 100.409C231.892 101.561 232.576 102.44 233.471 103.045C234.366 103.65 235.452 103.953 236.728 103.953C237.855 103.953 238.808 103.77 239.588 103.406C240.375 103.033 240.972 102.506 241.378 101.827C241.784 101.147 241.987 100.347 241.987 99.4272L243.131 99.564H236.939V95.076H247.917V98.4451C247.917 100.724 247.432 102.676 246.463 104.301C245.501 105.925 244.175 107.172 242.484 108.043C240.802 108.913 238.866 109.348 236.678 109.348C234.25 109.348 232.116 108.822 230.276 107.769C228.436 106.717 227.002 105.216 225.974 103.269C224.947 101.313 224.433 98.9921 224.433 96.3068C224.433 94.2181 224.744 92.3658 225.365 90.7496C225.987 89.1251 226.853 87.7493 227.963 86.6221C229.082 85.4949 230.375 84.6412 231.842 84.0611C233.318 83.4809 234.905 83.1908 236.604 83.1908C238.079 83.1908 239.451 83.4022 240.719 83.8249C241.995 84.2475 243.122 84.8443 244.1 85.6151C245.087 86.3859 245.886 87.3017 246.5 88.3626C247.113 89.4235 247.494 90.588 247.644 91.856H241.415ZM251.544 109V89.9042H257.449V93.3852H257.648C257.996 92.1254 258.564 91.1888 259.352 90.5755C260.139 89.9539 261.055 89.6431 262.099 89.6431C262.381 89.6431 262.671 89.6638 262.969 89.7053C263.268 89.7384 263.545 89.7923 263.802 89.8669V95.1506C263.512 95.0511 263.131 94.9724 262.659 94.9143C262.194 94.8563 261.78 94.8273 261.415 94.8273C260.694 94.8273 260.044 94.9889 259.463 95.3122C258.892 95.6271 258.44 96.0705 258.108 96.6424C257.785 97.206 257.624 97.8691 257.624 98.6316V109H251.544ZM274.202 109.361C272.196 109.361 270.472 108.95 269.03 108.13C267.596 107.301 266.49 106.149 265.711 104.674C264.94 103.19 264.554 101.47 264.554 99.5143C264.554 97.55 264.94 95.8302 265.711 94.3549C266.49 92.8713 267.596 91.7193 269.03 90.8988C270.472 90.0699 272.196 89.6555 274.202 89.6555C276.208 89.6555 277.927 90.0699 279.361 90.8988C280.803 91.7193 281.91 92.8713 282.681 94.3549C283.46 95.8302 283.849 97.55 283.849 99.5143C283.849 101.47 283.46 103.19 282.681 104.674C281.91 106.149 280.803 107.301 279.361 108.13C277.927 108.95 276.208 109.361 274.202 109.361ZM274.239 104.773C274.968 104.773 275.586 104.549 276.091 104.102C276.597 103.654 276.982 103.033 277.248 102.237C277.521 101.441 277.658 100.521 277.658 99.477C277.658 98.4161 277.521 97.4878 277.248 96.6922C276.982 95.8965 276.597 95.2749 276.091 94.8273C275.586 94.3798 274.968 94.156 274.239 94.156C273.485 94.156 272.847 94.3798 272.325 94.8273C271.811 95.2749 271.417 95.8965 271.143 96.6922C270.878 97.4878 270.746 98.4161 270.746 99.477C270.746 100.521 270.878 101.441 271.143 102.237C271.417 103.033 271.811 103.654 272.325 104.102C272.847 104.549 273.485 104.773 274.239 104.773ZM299.284 100.757V89.9042H305.351V109H299.557V105.444H299.358C298.936 106.613 298.215 107.541 297.195 108.229C296.184 108.909 294.961 109.249 293.528 109.249C292.226 109.249 291.083 108.95 290.096 108.354C289.11 107.757 288.343 106.924 287.796 105.855C287.249 104.777 286.972 103.517 286.963 102.075V89.9042H293.043V100.882C293.051 101.918 293.325 102.734 293.863 103.331C294.402 103.928 295.136 104.226 296.064 104.226C296.669 104.226 297.212 104.093 297.692 103.828C298.181 103.555 298.567 103.161 298.849 102.647C299.139 102.125 299.284 101.495 299.284 100.757ZM309.22 116.161V89.9042H315.237V93.1738H315.424C315.672 92.5937 316.025 92.0342 316.481 91.4955C316.945 90.9568 317.533 90.5175 318.246 90.1777C318.967 89.8296 319.829 89.6555 320.832 89.6555C322.158 89.6555 323.397 90.0036 324.549 90.6998C325.709 91.396 326.646 92.4694 327.359 93.9198C328.071 95.3702 328.428 97.2184 328.428 99.4645C328.428 101.628 328.084 103.439 327.396 104.897C326.716 106.356 325.796 107.45 324.636 108.179C323.484 108.909 322.203 109.274 320.794 109.274C319.833 109.274 319 109.116 318.296 108.801C317.591 108.486 316.999 108.072 316.518 107.558C316.045 107.044 315.681 106.493 315.424 105.904H315.299V116.161H309.22ZM315.175 99.4521C315.175 100.48 315.312 101.375 315.585 102.137C315.867 102.9 316.269 103.493 316.791 103.915C317.322 104.33 317.956 104.537 318.693 104.537C319.439 104.537 320.073 104.33 320.596 103.915C321.118 103.493 321.511 102.9 321.777 102.137C322.05 101.375 322.187 100.48 322.187 99.4521C322.187 98.4244 322.05 97.5334 321.777 96.7792C321.511 96.025 321.118 95.4406 320.596 95.0262C320.082 94.6118 319.448 94.4046 318.693 94.4046C317.948 94.4046 317.313 94.6077 316.791 95.0138C316.269 95.4199 315.867 96.0001 315.585 96.7543C315.312 97.5085 315.175 98.4078 315.175 99.4521Z" fill="black"/>
<defs>
<linearGradient id="paint0_linear_189_10" x1="58.5" y1="56" x2="58.5" y2="94" gradientUnits="userSpaceOnUse">
<stop stop-color="white" stop-opacity="0"/>
<stop offset="1" stop-color="white"/>
</linearGradient>
</defs>
</svg>
